<svg width="515" xmlns="http://www.w3.org/2000/svg" height="255" id="screenshot-a348dfa7-072b-8015-8005-fb73d1446b6c" fill="none" version="1.1"><style>@font-face {
    font-family: &apos;sourcesanspro&apos;;
    font-style: normal;
    font-weight: bold;
    font-display: block;
    src: url(https://design.penpot.app/fonts/sourcesanspro-bold.woff) format(&apos;woff&apos;);
  }</style><g id="shape-a348dfa7-072b-8015-8005-fb73d1446b6c"><defs><clipPath id="frame-clip-a348dfa7-072b-8015-8005-fb73d1446b6c-render-1" class="frame-clip frame-clip-def"><rect rx="0" ry="0" width="515" height="255" transform="matrix(1.000000, 0.000000, 0.000000, 1.000000, 0.000000, 0.000000)"/></clipPath></defs><g class="frame-container-wrapper"><g class="frame-container-blur"><g clip-path="url(#frame-clip-a348dfa7-072b-8015-8005-fb73d1446b6c-render-1)" class="frame-container-shadows"><g class="fills" id="fills-a348dfa7-072b-8015-8005-fb73d1446b6c"><rect rx="0" ry="0" width="515" height="255" transform="matrix(1.000000, 0.000000, 0.000000, 1.000000, 0.000000, 0.000000)" class="frame-background"/></g><g class="frame-children"><g id="shape-a348dfa7-072b-8015-8005-fb760e5a0c40"><g transform="matrix(1.000000, 0.000000, 0.000000, 1.000000, 0.000000, 0.000000)" class="text-container" id="shape-a348dfa7-072b-8015-8005-fb745524261d"><defs><linearGradient id="fill-color-gradient-render-3-0-0" x1="0" y1=".509" x2="1.004" y2=".509"><stop offset="0" stop-color="#0466fb"/><stop offset="1" stop-color="#edbd12"/></linearGradient><pattern patternUnits="userSpaceOnUse" x="133" y="131" width="248.125" height="43.636" id="fill-0-render-3-0"><rect width="248.125" height="43.636" style="fill: url(&quot;#fill-color-gradient-render-3-0-0&quot;);"/></pattern></defs><text x="133" y="171.909" dominant-baseline="ideographic" textLength="248.125" lengthAdjust="spacingAndGlyphs" fill="url(#fill-0-render-3-0)" style="text-transform: none; font-family: sourcesanspro; letter-spacing: normal; font-style: normal; font-weight: 700; white-space: pre; font-size: 32px; text-decoration: none solid rgba(0, 0, 0, 0); direction: ltr;" class="fills" id="fills-a348dfa7-072b-8015-8005-fb745524261d">Link to your Bible</text></g><g transform="matrix(1.000000, 0.000000, 0.000000, 1.000000, 0.000000, 0.000000)" class="text-container" id="shape-a348dfa7-072b-8015-8005-fb7470ffe09f"><defs><pattern patternUnits="userSpaceOnUse" x="176.5" y="170" width="161.179" height="38.182" id="fill-0-render-4-0"><rect width="161.179" height="38.182" style="fill: rgb(106, 106, 106); fill-opacity: 1;"/></pattern></defs><text x="176.5" y="205.455" dominant-baseline="ideographic" textLength="161.179" lengthAdjust="spacingAndGlyphs" style="text-transform: none; font-family: sourcesanspro; letter-spacing: normal; font-style: normal; font-weight: 700; white-space: pre; font-size: 28px; text-decoration: none solid rgb(106, 106, 106); direction: ltr; fill: rgb(106, 106, 106); fill-opacity: 1;" class="fills" id="fills-a348dfa7-072b-8015-8005-fb7470ffe09f">in your notes</text></g></g><g id="shape-a348dfa7-072b-8015-8005-fb75597f5f81"><g transform="matrix(1.000000, 0.000000, 0.000000, 1.000000, 0.000000, 0.000000)" class="text-container" id="shape-a348dfa7-072b-8015-8005-fb744eb4b16e"><defs><pattern patternUnits="userSpaceOnUse" x="343" y="58" width="140.81" height="36.364" id="fill-0-render-6-0"><rect width="140.81" height="36.364" style="fill: rgb(133, 133, 133); fill-opacity: 1;"/></pattern></defs><text x="343" y="91.636" dominant-baseline="ideographic" textLength="140.81" lengthAdjust="spacingAndGlyphs" style="text-transform: none; font-family: sourcesanspro; letter-spacing: normal; font-style: normal; font-weight: 700; white-space: pre; font-size: 26px; text-decoration: none solid rgb(133, 133, 133); direction: ltr; fill: rgb(133, 133, 133); fill-opacity: 1;" class="fills" id="fills-a348dfa7-072b-8015-8005-fb744eb4b16e">for Obsidian</text></g><g id="shape-a348dfa7-072b-8015-8005-fb750de0e120"><g id="shape-a348dfa7-072b-8015-8005-fb74a5f1c692" style="fill: rgb(0, 0, 0);"><g id="shape-a348dfa7-072b-8015-8005-fb74a5f33247"><path d="M45.000,58.515C43.166,56.182,40.340,53.848,33.335,53.677C32.875,53.665,32.500,54.039,32.500,54.499C32.500,57.914,32.500,70.839,32.500,74.662C32.500,75.122,32.875,75.483,33.335,75.498C40.340,75.727,43.166,78.833,45.000,81.167M45.000,58.515C46.833,56.182,49.660,53.848,56.665,53.677C57.125,53.665,57.500,54.031,57.500,54.491C57.500,58.307,57.500,70.844,57.500,74.661C57.500,75.121,57.125,75.483,56.665,75.498C49.660,75.727,46.833,78.833,45.000,81.167M45.000,58.515L45.000,81.167" fill="none" stroke-linejoin="round" style="fill: none;" class="fills" id="fills-a348dfa7-072b-8015-8005-fb74a5f33247"/><g fill="none" stroke-linejoin="round" id="strokes-5cddd098-4576-80f0-8005-fb77639af4c1-a348dfa7-072b-8015-8005-fb74a5f33247" class="strokes"><path d="M45.000,58.515C43.166,56.182,40.340,53.848,33.335,53.677C32.875,53.665,32.500,54.039,32.500,54.499C32.500,57.914,32.500,70.839,32.500,74.662C32.500,75.122,32.875,75.483,33.335,75.498C40.340,75.727,43.166,78.833,45.000,81.167M45.000,58.515C46.833,56.182,49.660,53.848,56.665,53.677C57.125,53.665,57.500,54.031,57.500,54.491C57.500,58.307,57.500,70.844,57.500,74.661C57.500,75.121,57.125,75.483,56.665,75.498C49.660,75.727,46.833,78.833,45.000,81.167M45.000,58.515L45.000,81.167" style="fill: none; stroke-width: 2; stroke: rgb(0, 0, 0); stroke-opacity: 1;" class="stroke-shape"/></g></g><g id="shape-a348dfa7-072b-8015-8005-fb74a5f390a3"><path d="M57.059,57.000L60.833,57.000C61.294,57.000,61.667,57.373,61.667,57.833L61.667,79.565C61.667,80.239,60.872,80.687,60.256,80.413C58.931,79.825,56.719,79.105,53.823,79.105C48.921,79.105,45.000,82.000,45.000,82.000C45.000,82.000,41.078,79.105,36.176,79.105C33.281,79.105,31.069,79.825,29.744,80.413C29.128,80.687,28.333,80.239,28.333,79.565L28.333,57.833C28.333,57.373,28.706,57.000,29.167,57.000L32.941,57.000" fill="none" stroke-linejoin="round" style="fill: none;" class="fills" id="fills-a348dfa7-072b-8015-8005-fb74a5f390a3"/><g fill="none" stroke-linejoin="round" id="strokes-5cddd098-4576-80f0-8005-fb77639bba78-a348dfa7-072b-8015-8005-fb74a5f390a3" class="strokes"><path d="M57.059,57.000L60.833,57.000C61.294,57.000,61.667,57.373,61.667,57.833L61.667,79.565C61.667,80.239,60.872,80.687,60.256,80.413C58.931,79.825,56.719,79.105,53.823,79.105C48.921,79.105,45.000,82.000,45.000,82.000C45.000,82.000,41.078,79.105,36.176,79.105C33.281,79.105,31.069,79.825,29.744,80.413C29.128,80.687,28.333,80.239,28.333,79.565L28.333,57.833C28.333,57.373,28.706,57.000,29.167,57.000L32.941,57.000" style="fill: none; stroke-width: 2; stroke: rgb(0, 0, 0); stroke-opacity: 1;" class="stroke-shape"/></g></g><g id="shape-a348dfa7-072b-8015-8005-fb74a5f2ba1b"><rect rx="0" ry="0" x="48.83" y="47" transform="matrix(1.000000, 0.000000, 0.000000, 1.000000, 0.000000, 0.000000)" width="16.17" height="40" style="fill: rgb(255, 255, 255);" class="fills" id="fills-a348dfa7-072b-8015-8005-fb74a5f2ba1b"/></g></g><g transform="matrix(1.000000, 0.000000, 0.000000, 1.000000, 0.000000, 0.000000)" class="text-container" id="shape-a348dfa7-072b-8015-8005-fb741e3d2dde"><defs><linearGradient id="fill-color-gradient-render-13-0-0" x1="0" y1=".517" x2="1.062" y2=".517"><stop offset="0"/><stop offset=".61"/><stop offset="1"/></linearGradient><pattern patternUnits="userSpaceOnUse" x="45" y="44" width="291.96" height="59.091" id="fill-0-render-13-0"><rect width="291.96" height="59.091" style="fill: url(&quot;#fill-color-gradient-render-13-0-0&quot;);"/></pattern></defs><text x="45" y="98.545" dominant-baseline="ideographic" textLength="291.96" lengthAdjust="spacingAndGlyphs" fill="url(#fill-0-render-13-0)" style="text-transform: none; font-family: sourcesanspro; letter-spacing: normal; font-style: normal; font-weight: 700; white-space: pre; font-size: 43px; text-decoration: none solid rgba(0, 0, 0, 0); direction: ltr;" class="fills" id="fills-a348dfa7-072b-8015-8005-fb741e3d2dde">Bible linker Pro</text></g></g></g></g></g></g></g></g></svg>